<svg width="48" height="47" viewBox="0 0 48 47" fill="none" xmlns="http://www.w3.org/2000/svg">
<g clip-path="url(#clip0_2_2)">
<mask id="mask0_2_2" style="mask-type:luminance" maskUnits="userSpaceOnUse" x="0" y="-1" width="48" height="48">
<path d="M48 -1H0V47H48V-1Z" fill="white"/>
</mask>
<g mask="url(#mask0_2_2)">
<path d="M0 14.5792C0 8.35769 3.83632 2.74813 9.87831 1.26425C19.9862 -1.2182 35.2427 -3.26324 42.753 4.24707C49.0925 10.5867 48.6236 22.4456 46.8302 32.0683C45.1204 41.2426 36.587 47 27.2548 47H7.5C3.35787 47 0 43.6421 0 39.5V14.5792Z" fill="#FE705A"/>
<path d="M41.1142 32.6333C40.3051 32.7394 39.7016 32.3829 39.3037 31.5637C38.9327 30.7652 38.6816 29.8662 38.5505 28.8667L38.5218 27.8176C37.4526 28.7082 36.1489 29.4722 34.6107 30.1097C33.0964 30.744 31.4706 31.1751 29.7335 31.403C28.4723 31.5684 27.3164 31.4296 26.2659 30.9864C25.2122 30.5195 24.3462 29.8222 23.6677 28.8946C23.01 27.94 22.5969 26.8202 22.4283 25.5352C22.1724 23.5839 22.6919 21.6398 23.987 19.703C25.279 17.7423 26.9597 16.0695 29.0292 14.6846C31.1193 13.2728 33.1069 12.3706 34.9919 11.9781C35.9312 11.7581 36.7684 11.8661 37.5033 12.3022C38.2352 12.7146 38.6604 13.3729 38.779 14.2771C38.2793 14.3427 37.6672 14.2898 36.9428 14.1186C36.8445 14.1073 36.5853 14.0686 36.1651 14.0027C35.745 13.9368 35.3208 13.9319 34.8924 13.9881C33.2029 14.2097 31.4703 14.9332 29.6946 16.1586C27.9426 17.3808 26.5303 18.8853 25.4576 20.6719C24.4055 22.4317 23.9949 24.1921 24.2259 25.953C24.3352 26.7858 24.6802 27.4789 25.2611 28.032C25.8626 28.5582 26.566 28.938 27.3712 29.1713C28.197 29.3776 29.0026 29.4293 29.7879 29.3263C31.6678 29.0797 33.2052 28.8054 34.4 28.5034C35.5918 28.1777 36.5842 27.6239 37.3773 26.8421C38.1672 26.0366 38.4701 24.9318 38.2859 23.5278C38.1985 22.8615 37.9949 22.4162 37.675 22.1919L31.3214 23.0253C30.9883 23.069 30.6452 22.9446 30.2921 22.652C29.9629 22.3563 29.7764 22.0419 29.7327 21.7087C29.6547 21.1138 29.7941 20.793 30.1511 20.7462C30.4366 20.7087 30.9044 20.7684 31.5543 20.9252C32.1597 21.112 32.6647 21.1789 33.0692 21.1259C33.5928 21.0572 34.3925 20.8797 35.4684 20.5933C35.6556 20.5446 35.996 20.4636 36.4894 20.3505C36.9829 20.2373 37.4319 20.1542 37.8365 20.1012C38.241 20.0481 38.657 20.1751 39.0846 20.4821C39.5328 20.7622 39.7731 21.1179 39.8055 21.5494L40.6729 29.8228C40.8832 30.1341 41.2062 30.3822 41.6419 30.5671C41.7941 30.6198 41.924 30.6875 42.0316 30.7702C42.1424 30.8767 42.2175 30.9878 42.2569 31.1037C42.4103 31.3499 42.3287 31.651 42.0124 32.0072C41.6991 32.3872 41.3997 32.5959 41.1142 32.6333Z" fill="white"/>
<path d="M3.8008 30.4921C4.10594 30.1283 4.42816 29.9109 4.76743 29.8397C5.08062 29.774 5.39991 29.8023 5.72533 29.9248C6.07684 30.0418 6.4393 30.211 6.81271 30.4323C7.18065 30.6276 7.46966 30.7713 7.67973 30.8635C8.37855 31.2073 9.27731 31.4002 10.376 31.4422C11.4747 31.4841 12.6113 31.3819 13.7857 31.1355C15.1167 30.8562 16.2522 30.3591 17.1921 29.6442C18.1526 28.8977 18.5425 28.0939 18.3618 27.2326C18.1975 26.4497 17.7817 25.8966 17.1145 25.5734C16.4418 25.2241 15.679 25.0299 14.8261 24.9909C13.9733 24.9518 12.8622 24.9806 11.4928 25.0772C9.64821 25.2462 8.15804 25.2864 7.0223 25.1977C5.91265 25.1036 4.97072 24.7699 4.19651 24.1967C3.41683 23.5973 2.89009 22.6452 2.6163 21.3403C2.32061 19.931 2.76708 18.7474 3.95573 17.7896C5.1389 16.8057 6.59174 16.133 8.31423 15.7716C9.88014 15.443 11.2823 15.5031 12.5208 15.9516C13.78 16.3686 14.5513 17.1877 14.8347 18.4088C15.0348 19.1026 15.0481 19.6856 14.8747 20.1579C14.6959 20.6041 14.4238 20.8656 14.0584 20.9422C13.8496 20.9861 13.6505 20.9461 13.4611 20.8224C13.2977 20.6931 13.1886 20.498 13.1339 20.2371C13.0463 19.8195 13.094 19.3326 13.277 18.7765C13.0151 18.1776 12.4859 17.7981 11.6895 17.6383C10.9191 17.4729 10.0381 17.4943 9.04631 17.7024C7.5848 18.009 6.48092 18.5268 5.73466 19.2555C4.98293 19.9582 4.68373 20.6749 4.83705 21.4057C5.00132 22.1886 5.44045 22.7232 6.15442 23.0093C6.8684 23.2955 7.68822 23.4368 8.6139 23.4333C9.5602 23.3983 10.8849 23.2838 12.5881 23.0899C14.0096 22.9824 15.1784 22.9688 16.0944 23.0491C17.0365 23.1239 17.8871 23.4767 18.6462 24.1076C19.3997 24.7125 19.9216 25.7065 20.2119 27.0897C20.513 28.5251 20.0857 29.8 18.9299 30.9144C17.7687 32.0027 16.2615 32.7413 14.4085 33.1301C12.0336 33.6284 9.82169 33.6701 7.77286 33.2553C5.75012 32.8351 4.4261 31.914 3.8008 30.4921Z" fill="white"/>
</g>
</g>
<defs>
<clipPath id="clip0_2_2">
<rect width="48" height="47" fill="white"/>
</clipPath>
</defs>
</svg>
